
<?xml version="1.0" encoding="utf-8"?><svg xml:space="preserve" viewBox="0 0 100 100" y="0" x="0" xmlns="http://www.w3.org/2000/svg" id="圖層_1" version="1.1" width="100%" height="100%" xmlns:xlink="http://www.w3.org/1999/xlink" style="width:100%;height:100%;background-size:initial;background-repeat-y:initial;background-repeat-x:initial;background-position-y:initial;background-position-x:initial;background-origin:initial;background-color:initial;background-clip:initial;background-attachment:initial" ><g class="ldl-scale" style="transform-origin:50% 50%;transform:rotate(0deg) scale(0.8, 0.8)" ><path stroke-miterlimit="10" stroke-width="3.5" stroke-linejoin="round" stroke="#333" stroke-linecap="round" fill="#fff" d="M54.4 56.2l2.1-14.7c.4-2.8.6-5.5.6-8.3V26H26.7v7.2c0 2.8.2 5.5.6 8.3l2.1 14.8v.2c1.5 10.5 1.2 21.2-.6 31.7-.2 1 .6 1.9 1.7 1.9h22.4c1.1 0 2-.9 2-1.9v0c-1.8-10.5-2-21.1-.6-31.7.1-.2.1-.2.1-.3z" style="stroke:rgb(51, 51, 51);fill:rgb(255, 255, 255)" ></path>
<path fill="#f5e169" d="M31.4 40.9l2.1 15c1.4 9.7 1.3 19.8-.1 30h16.9c-1.4-10.2-1.5-20.3-.1-30l2.1-15 .3-2.1H31.2c0 .6.1 1.4.2 2.1z" style="fill:rgb(245, 225, 105)" ></path>
<path fill="#f5e6c8" d="M51.6 30.1c-1.1 0-2.1.5-2.8 1.3-.5-.3-1.2-.6-1.8-.6-1.1 0-2.1.6-2.7 1.4h-.2c-.4 0-.8.2-1.1.5-.6-.8-1.6-1.3-2.7-1.3-.6 0-1.2.2-1.7.5-.8-1-2-1.7-3.4-1.7-2.1 0-3.9 1.6-4.2 3.6h-.1v1c0 .6 0 1.2.1 1.8 0 .7.1 1.4.2 2.1h21.5c0-.5.1-.9.1-1.4.1-1.4.2-2.8.2-4.2V30h-1.4z" style="fill:rgb(245, 230, 200)" ></path>
<path d="M35.9 84.6h12" stroke-miterlimit="10" stroke-linecap="round" stroke-width="3.5" stroke="#333" fill="none" style="stroke:rgb(51, 51, 51)" ></path>
<path stroke-miterlimit="10" stroke-linecap="round" stroke-width="3.5" stroke="#000" opacity=".2" d="M45.9 90h7c1.1 0 2-.9 2-1.9v0c-1.8-10.5-2-21.1-.6-31.7v-.2l2.1-14.7c.4-2.8.6-5.5.6-8.3V26H45.9v64z" style="stroke:rgb(0, 0, 0)" ></path>
<path d="M34.3 42.1l1.2 8.9" stroke-miterlimit="10" stroke-width="3.5" stroke="#fff" stroke-linecap="round" fill="none" style="stroke:rgb(255, 255, 255)" ></path>
<path d="M36.2 55.6v.5" stroke-miterlimit="10" stroke-width="3.5" stroke="#fff" stroke-linecap="round" fill="none" style="stroke:rgb(255, 255, 255)" ></path>
<path stroke-miterlimit="10" stroke-width="3.5" stroke-linejoin="round" stroke="#333" stroke-linecap="round" fill="#f5e6c8" d="M67.2 27.8s-.1 0 0 0c-.2-1.7-1.2-3.2-2.8-4.1 0 0 0 0 0 0 .5.2 1.1.3 1.6.3 2.7 0 4.9-2.1 4.9-4.6 0-2.5-2.2-4.6-4.9-4.6-1.4 0-2.6.5-3.5 1.4-1.1-.9-2.4-1.5-3.9-1.6C58.2 12 55.8 10 53 10c-2.9 0-5.2 2-5.6 4.6h-.1c-1.3 0-2.4 1-2.4 2.3 0 .5.2.9.5 1.3-2.5.3-4.5 2.3-4.5 4.8 0 .9.3 1.8.7 2.5h8.8c.2-.3.3-.6.4-.9.3 0 .6-.1.8-.2.9 1.5 2.4 2.7 4.2 3.2 0 .2-.1.5-.1.8 0 1.4.6 2.6 1.4 3.5v20.5c0 1.9 1.7 3.5 3.7 3.5 2.1 0 3.7-1.6 3.7-3.5V38.9c.8.3 1.6.5 2.4.5 3.4 0 6.2-2.6 6.2-5.8.2-3.2-2.5-5.8-5.9-5.8z" style="stroke:rgb(51, 51, 51);fill:rgb(245, 230, 200)" ></path>
</g>
</svg>