
<?xml version="1.0" encoding="utf-8"?><svg xml:space="preserve" viewBox="0 0 100 100" y="0" x="0" xmlns="http://www.w3.org/2000/svg" id="圖層_1" version="1.1" width="100%" height="100%" xmlns:xlink="http://www.w3.org/1999/xlink" style="width:100%;height:100%;background-size:initial;background-repeat-y:initial;background-repeat-x:initial;background-position-y:initial;background-position-x:initial;background-origin:initial;background-image:initial;background-clip:initial;background-attachment:initial" ><g class="ldl-scale" style="transform-origin:50% 50%;transform:rotate(0deg) scale(0.8, 0.8)" ><path stroke-miterlimit="10" stroke-width="3.5" stroke="#333" fill="#e0e0e0" d="M64.6 88.5c-1 0-1.9-.5-2.4-1.3l-.1-.1c-6.1-10.9-1.5-41.9 3.4-73.9.5-2.9-1.9-5.6-5-5.6h-21c-3.1 0-5.5 2.6-5 5.6 4.9 32.1 9.5 63 3.4 73.9 0 .1-.1.1-.1.1-.5.8-1.4 1.3-2.4 1.3h-.6c-1.5 0-2.8 1.2-2.8 2.6h0c0 1.5 1.2 2.6 2.8 2.6h30.5c1.5 0 2.8-1.2 2.8-2.6h0c0-1.5-1.2-2.6-2.8-2.6h-.7z" style="stroke:rgb(51, 51, 51);fill:rgb(224, 224, 224)" ></path>
<path fill="#f8b26a" d="M47 88.5h6c2.2 0 3.8-2.7 3.3-5.4-1.8-9.5.6-33.8 3.1-52.1H40.6c2.5 18.3 4.9 42.6 3.1 52.1-.5 2.7 1.1 5.4 3.3 5.4z" style="fill:rgb(248, 178, 106)" ></path>
<path fill="#fff" d="M59 25.1c0-.9-.8-1.7-1.8-1.7s-1.8.7-1.8 1.7h-1.9c-.2-.5-.7-.8-1.3-.8-.6 0-1.1.4-1.3.8h-2.8c0-1.4-1.2-2.5-2.7-2.5s-2.7 1.1-2.7 2.5h-3c.3 2 .6 3.9.8 5.9h18.7c.3-1.9.5-3.9.8-5.9h-1z" style="fill:rgb(255, 255, 255)" ></path>
<circle fill="#fff" r="1.2" cy="36.3" cx="46.4" style="fill:rgb(255, 255, 255)" ></circle>
<circle fill="#fff" r="1.2" cy="42.2" cx="49.2" style="fill:rgb(255, 255, 255)" ></circle>
<circle fill="#fff" r="1.2" cy="50.6" cx="47.6" style="fill:rgb(255, 255, 255)" ></circle>
<circle fill="#fff" r="1.2" cy="66.1" cx="53.5" style="fill:rgb(255, 255, 255)" ></circle>
<circle fill="#fff" r="1.2" cy="53.6" cx="51.6" style="fill:rgb(255, 255, 255)" ></circle>
<circle fill="#fff" r="1.2" cy="37.5" cx="54.1" style="fill:rgb(255, 255, 255)" ></circle>
<circle fill="#fff" r="1.2" cy="79.4" cx="48.8" style="fill:rgb(255, 255, 255)" ></circle>
<circle fill="#fff" r="1.2" cy="81.8" cx="54" style="fill:rgb(255, 255, 255)" ></circle>
<path stroke-miterlimit="10" stroke-width="3.5" stroke="#000" opacity=".2" d="M65.2 88.5h-.6c-1 0-1.9-.5-2.4-1.3l-.1-.1c-6.1-10.9-1.5-41.9 3.4-73.9.5-2.9-1.9-5.6-5-5.6h-8.9v86.2h13.6c1.5 0 2.8-1.2 2.8-2.6s-1.2-2.7-2.8-2.7z" style="stroke:rgb(0, 0, 0)" ></path>
<path d="M45 78.6v.5" stroke-miterlimit="10" stroke-width="3.5" stroke="#fff" fill="none" stroke-linecap="round" style="stroke:rgb(255, 255, 255)" ></path>
<path d="M45.5 67.8l-.3 5.9" stroke-miterlimit="10" stroke-width="3.5" stroke="#fff" fill="none" stroke-linecap="round" style="stroke:rgb(255, 255, 255)" ></path>
<path d="M57.5 14.2h1.9" stroke-miterlimit="10" stroke-width="3.5" stroke="#fff" fill="none" stroke-linecap="round" style="stroke:rgb(255, 255, 255)" ></path>
<path d="M40.6 14.2H50" stroke-miterlimit="10" stroke-width="3.5" stroke="#fff" fill="none" stroke-linecap="round" style="stroke:rgb(255, 255, 255)" ></path>
</g>
</svg>