
<?xml version="1.0" encoding="utf-8"?><svg xml:space="preserve" viewBox="0 0 100 100" y="0" x="0" xmlns="http://www.w3.org/2000/svg" id="圖層_1" version="1.1" width="100%" height="100%" xmlns:xlink="http://www.w3.org/1999/xlink" style="width:100%;height:100%;background-size:initial;background-repeat-y:initial;background-repeat-x:initial;background-position-y:initial;background-position-x:initial;background-origin:initial;background-color:initial;background-clip:initial;background-attachment:initial" ><g class="ldl-scale" style="transform-origin:50% 50%;transform:rotate(0deg) scale(0.8, 0.8)" ><path d="M23.4 38.3H57v45.4H23.4z" stroke-miterlimit="10" stroke-width="3.5" stroke-linejoin="round" stroke="#333" fill="#849b87" stroke-linecap="round" style="stroke:rgb(51, 51, 51);fill:rgb(132, 155, 135)" ></path>
<path stroke-miterlimit="10" stroke-width="3.5" stroke-linejoin="round" stroke="#333" fill="#e0e0e0" d="M50.8 90H29.7c-1.2 0-2.2-.7-2.6-1.8-.6-1.6-1.8-3.2-3.6-4.8H57c-1.8 1.6-3.1 3.2-3.6 4.8C53 89.3 52 90 50.8 90z" style="stroke:rgb(51, 51, 51);fill:rgb(224, 224, 224)" ></path>
<path stroke-miterlimit="10" stroke-width="3.5" stroke-linejoin="round" stroke="#333" fill="#e0e0e0" d="M53 31.9h0-25.7c-.1 2.2-1.4 4.4-4 6.7H57c-2.6-2.2-3.9-4.5-4-6.7z" style="stroke:rgb(51, 51, 51);fill:rgb(224, 224, 224)" ></path>
<path d="M25.2 31.9h30" stroke-miterlimit="10" stroke-width="3.5" stroke="#333" stroke-linejoin="round" stroke-linecap="round" fill="none" style="stroke:rgb(51, 51, 51)" ></path>
<path d="M31.8 46.9H57v28.2H31.8z" stroke-miterlimit="10" stroke-width="3.5" stroke-linejoin="round" stroke="#333" fill="#abbd81" stroke-linecap="round" style="stroke:rgb(51, 51, 51);fill:rgb(171, 189, 129)" ></path>
<path stroke-miterlimit="10" stroke-width="3.5" stroke="#000" stroke-linejoin="round" stroke-linecap="round" opacity=".2" d="M56.7 38.3c-2.3-2.1-3.5-4.2-3.6-6.4h0-7.5 0c.1 2.1 1 4.2 2.8 6.4h.3v45.4h-.3c-1.3 1.5-2.1 3-2.6 4.5-.3 1.1-1.1 1.8-2 1.8h7c1.2 0 2.2-.7 2.6-1.8.5-1.5 1.6-3 3.3-4.5h.3V38.3h-.3z" style="stroke:rgb(0, 0, 0)" ></path>
<path d="M27.5 43.7V51" stroke-miterlimit="10" stroke-width="3.5" stroke="#fff" fill="none" stroke-linejoin="round" stroke-linecap="round" style="stroke:rgb(255, 255, 255)" ></path>
<path d="M27.5 55.1v.3" stroke-miterlimit="10" stroke-width="3.5" stroke="#fff" fill="none" stroke-linejoin="round" stroke-linecap="round" style="stroke:rgb(255, 255, 255)" ></path>
<path stroke-miterlimit="10" stroke-width="3.5" stroke-linejoin="round" stroke="#333" stroke-linecap="round" fill="#f5e6c8" d="M68.4 35.3s-.1 0 0 0c-.3-2.5-1.7-4.6-3.7-5.8 0 0 0 0 0 0 .7.2 1.4.4 2.2.4 3.6 0 6.5-2.9 6.5-6.5s-2.9-6.5-6.5-6.5c-1.9 0-3.5.8-4.7 2-1.4-1.2-3.2-2.1-5.2-2.3-.5-3.7-3.6-6.6-7.5-6.6-3.8 0-7 2.8-7.4 6.5H42c-1.8 0-3.2 1.4-3.2 3.2 0 .7.2 1.3.6 1.9-3.4.4-5.9 3.3-5.9 6.8 0 1.3.4 2.5 1 3.5h11.7c.2-.4.4-.8.6-1.3.4-.1.7-.2 1.1-.3 1.2 2.2 3.2 3.8 5.6 4.5-.1.4-.1.7-.1 1.1 0 1.9.7 3.7 1.9 5v29.2c0 2.7 2.2 4.9 4.9 4.9s4.9-2.2 4.9-4.9V51c1 .4 2.1.7 3.3.7 4.5 0 8.2-3.7 8.2-8.2 0-4.6-3.7-8.2-8.2-8.2z" style="stroke:rgb(51, 51, 51);fill:rgb(245, 230, 200)" ></path>
</g>
</svg>